<?xml version="1.0" encoding="UTF-8" standalone="no"?>
<!DOCTYPE svg PUBLIC "-//W3C//DTD SVG 1.1//EN"
 "http://www.w3.org/Graphics/SVG/1.1/DTD/svg11.dtd">
<!-- Generated by graphviz version 3.0.0 (20220413.0242)
 -->
<!-- Title: name Pages: 1 -->
<svg width="694pt" height="886pt"
 viewBox="0.00 0.00 693.50 886.00" xmlns="http://www.w3.org/2000/svg" xmlns:xlink="http://www.w3.org/1999/xlink">
<g id="graph0" class="graph" transform="scale(1 1) rotate(0) translate(4 882)">
<title>name</title>
<!-- district -->
<g id="node1" class="node">
<title>district</title>
<polygon fill="Lavender" stroke="transparent" points="438.5,-307.5 438.5,-330.5 586.5,-330.5 586.5,-307.5 438.5,-307.5"/>
<polygon fill="none" stroke="black" points="438.5,-307.5 438.5,-330.5 586.5,-330.5 586.5,-307.5 438.5,-307.5"/>
<text text-anchor="start" x="482" y="-315.9" font-family="Helvetica,sans-Serif" font-weight="bold" font-size="12.00">district</text>
<polygon fill="White" stroke="transparent" points="438.5,-288.5 438.5,-307.5 527.5,-307.5 527.5,-288.5 438.5,-288.5"/>
<polygon fill="none" stroke="black" points="438.5,-288.5 438.5,-307.5 527.5,-307.5 527.5,-288.5 438.5,-288.5"/>
<text text-anchor="start" x="441.5" y="-294.9" font-family="Helvetica,sans-Serif" font-size="12.00">district_id</text>
<polygon fill="White" stroke="transparent" points="527.5,-288.5 527.5,-307.5 586.5,-307.5 586.5,-288.5 527.5,-288.5"/>
<polygon fill="none" stroke="black" points="527.5,-288.5 527.5,-307.5 586.5,-307.5 586.5,-288.5 527.5,-288.5"/>
<text text-anchor="start" x="530.5" y="-294.9" font-family="Helvetica,sans-Serif" font-size="12.00">int</text>
<polygon fill="White" stroke="transparent" points="438.5,-269.5 438.5,-288.5 527.5,-288.5 527.5,-269.5 438.5,-269.5"/>
<polygon fill="none" stroke="black" points="438.5,-269.5 438.5,-288.5 527.5,-288.5 527.5,-269.5 438.5,-269.5"/>
<text text-anchor="start" x="441.5" y="-275.9" font-family="Helvetica,sans-Serif" font-size="12.00">A2</text>
<polygon fill="White" stroke="transparent" points="527.5,-269.5 527.5,-288.5 586.5,-288.5 586.5,-269.5 527.5,-269.5"/>
<polygon fill="none" stroke="black" points="527.5,-269.5 527.5,-288.5 586.5,-288.5 586.5,-269.5 527.5,-269.5"/>
<text text-anchor="start" x="530.5" y="-275.9" font-family="Helvetica,sans-Serif" font-size="12.00">varchar</text>
<polygon fill="White" stroke="transparent" points="438.5,-250.5 438.5,-269.5 527.5,-269.5 527.5,-250.5 438.5,-250.5"/>
<polygon fill="none" stroke="black" points="438.5,-250.5 438.5,-269.5 527.5,-269.5 527.5,-250.5 438.5,-250.5"/>
<text text-anchor="start" x="441.5" y="-256.9" font-family="Helvetica,sans-Serif" font-size="12.00">A3</text>
<polygon fill="White" stroke="transparent" points="527.5,-250.5 527.5,-269.5 586.5,-269.5 586.5,-250.5 527.5,-250.5"/>
<polygon fill="none" stroke="black" points="527.5,-250.5 527.5,-269.5 586.5,-269.5 586.5,-250.5 527.5,-250.5"/>
<text text-anchor="start" x="530.5" y="-256.9" font-family="Helvetica,sans-Serif" font-size="12.00">varchar</text>
<polygon fill="White" stroke="transparent" points="438.5,-231.5 438.5,-250.5 527.5,-250.5 527.5,-231.5 438.5,-231.5"/>
<polygon fill="none" stroke="black" points="438.5,-231.5 438.5,-250.5 527.5,-250.5 527.5,-231.5 438.5,-231.5"/>
<text text-anchor="start" x="441.5" y="-237.9" font-family="Helvetica,sans-Serif" font-size="12.00">A4</text>
<polygon fill="White" stroke="transparent" points="527.5,-231.5 527.5,-250.5 586.5,-250.5 586.5,-231.5 527.5,-231.5"/>
<polygon fill="none" stroke="black" points="527.5,-231.5 527.5,-250.5 586.5,-250.5 586.5,-231.5 527.5,-231.5"/>
<text text-anchor="start" x="530.5" y="-237.9" font-family="Helvetica,sans-Serif" font-size="12.00">int</text>
<polygon fill="White" stroke="transparent" points="438.5,-212.5 438.5,-231.5 527.5,-231.5 527.5,-212.5 438.5,-212.5"/>
<polygon fill="none" stroke="black" points="438.5,-212.5 438.5,-231.5 527.5,-231.5 527.5,-212.5 438.5,-212.5"/>
<text text-anchor="start" x="441.5" y="-218.9" font-family="Helvetica,sans-Serif" font-size="12.00">A5</text>
<polygon fill="White" stroke="transparent" points="527.5,-212.5 527.5,-231.5 586.5,-231.5 586.5,-212.5 527.5,-212.5"/>
<polygon fill="none" stroke="black" points="527.5,-212.5 527.5,-231.5 586.5,-231.5 586.5,-212.5 527.5,-212.5"/>
<text text-anchor="start" x="530.5" y="-218.9" font-family="Helvetica,sans-Serif" font-size="12.00">int</text>
<polygon fill="White" stroke="transparent" points="438.5,-193.5 438.5,-212.5 527.5,-212.5 527.5,-193.5 438.5,-193.5"/>
<polygon fill="none" stroke="black" points="438.5,-193.5 438.5,-212.5 527.5,-212.5 527.5,-193.5 438.5,-193.5"/>
<text text-anchor="start" x="441.5" y="-199.9" font-family="Helvetica,sans-Serif" font-size="12.00">A6</text>
<polygon fill="White" stroke="transparent" points="527.5,-193.5 527.5,-212.5 586.5,-212.5 586.5,-193.5 527.5,-193.5"/>
<polygon fill="none" stroke="black" points="527.5,-193.5 527.5,-212.5 586.5,-212.5 586.5,-193.5 527.5,-193.5"/>
<text text-anchor="start" x="530.5" y="-199.9" font-family="Helvetica,sans-Serif" font-size="12.00">int</text>
<polygon fill="White" stroke="transparent" points="438.5,-174.5 438.5,-193.5 527.5,-193.5 527.5,-174.5 438.5,-174.5"/>
<polygon fill="none" stroke="black" points="438.5,-174.5 438.5,-193.5 527.5,-193.5 527.5,-174.5 438.5,-174.5"/>
<text text-anchor="start" x="441.5" y="-180.9" font-family="Helvetica,sans-Serif" font-size="12.00">A7</text>
<polygon fill="White" stroke="transparent" points="527.5,-174.5 527.5,-193.5 586.5,-193.5 586.5,-174.5 527.5,-174.5"/>
<polygon fill="none" stroke="black" points="527.5,-174.5 527.5,-193.5 586.5,-193.5 586.5,-174.5 527.5,-174.5"/>
<text text-anchor="start" x="530.5" y="-180.9" font-family="Helvetica,sans-Serif" font-size="12.00">int</text>
<polygon fill="White" stroke="transparent" points="438.5,-155.5 438.5,-174.5 527.5,-174.5 527.5,-155.5 438.5,-155.5"/>
<polygon fill="none" stroke="black" points="438.5,-155.5 438.5,-174.5 527.5,-174.5 527.5,-155.5 438.5,-155.5"/>
<text text-anchor="start" x="441.5" y="-161.9" font-family="Helvetica,sans-Serif" font-size="12.00">A8</text>
<polygon fill="White" stroke="transparent" points="527.5,-155.5 527.5,-174.5 586.5,-174.5 586.5,-155.5 527.5,-155.5"/>
<polygon fill="none" stroke="black" points="527.5,-155.5 527.5,-174.5 586.5,-174.5 586.5,-155.5 527.5,-155.5"/>
<text text-anchor="start" x="530.5" y="-161.9" font-family="Helvetica,sans-Serif" font-size="12.00">int</text>
<polygon fill="White" stroke="transparent" points="438.5,-136.5 438.5,-155.5 527.5,-155.5 527.5,-136.5 438.5,-136.5"/>
<polygon fill="none" stroke="black" points="438.5,-136.5 438.5,-155.5 527.5,-155.5 527.5,-136.5 438.5,-136.5"/>
<text text-anchor="start" x="441.5" y="-142.9" font-family="Helvetica,sans-Serif" font-size="12.00">A9</text>
<polygon fill="White" stroke="transparent" points="527.5,-136.5 527.5,-155.5 586.5,-155.5 586.5,-136.5 527.5,-136.5"/>
<polygon fill="none" stroke="black" points="527.5,-136.5 527.5,-155.5 586.5,-155.5 586.5,-136.5 527.5,-136.5"/>
<text text-anchor="start" x="530.5" y="-142.9" font-family="Helvetica,sans-Serif" font-size="12.00">int</text>
<polygon fill="White" stroke="transparent" points="438.5,-117.5 438.5,-136.5 527.5,-136.5 527.5,-117.5 438.5,-117.5"/>
<polygon fill="none" stroke="black" points="438.5,-117.5 438.5,-136.5 527.5,-136.5 527.5,-117.5 438.5,-117.5"/>
<text text-anchor="start" x="441.5" y="-123.9" font-family="Helvetica,sans-Serif" font-size="12.00">A10</text>
<polygon fill="White" stroke="transparent" points="527.5,-117.5 527.5,-136.5 586.5,-136.5 586.5,-117.5 527.5,-117.5"/>
<polygon fill="none" stroke="black" points="527.5,-117.5 527.5,-136.5 586.5,-136.5 586.5,-117.5 527.5,-117.5"/>
<text text-anchor="start" x="530.5" y="-123.9" font-family="Helvetica,sans-Serif" font-size="12.00">decimal</text>
<polygon fill="White" stroke="transparent" points="438.5,-98.5 438.5,-117.5 527.5,-117.5 527.5,-98.5 438.5,-98.5"/>
<polygon fill="none" stroke="black" points="438.5,-98.5 438.5,-117.5 527.5,-117.5 527.5,-98.5 438.5,-98.5"/>
<text text-anchor="start" x="441.5" y="-104.9" font-family="Helvetica,sans-Serif" font-size="12.00">A11</text>
<polygon fill="White" stroke="transparent" points="527.5,-98.5 527.5,-117.5 586.5,-117.5 586.5,-98.5 527.5,-98.5"/>
<polygon fill="none" stroke="black" points="527.5,-98.5 527.5,-117.5 586.5,-117.5 586.5,-98.5 527.5,-98.5"/>
<text text-anchor="start" x="530.5" y="-104.9" font-family="Helvetica,sans-Serif" font-size="12.00">int</text>
<polygon fill="White" stroke="transparent" points="438.5,-79.5 438.5,-98.5 527.5,-98.5 527.5,-79.5 438.5,-79.5"/>
<polygon fill="none" stroke="black" points="438.5,-79.5 438.5,-98.5 527.5,-98.5 527.5,-79.5 438.5,-79.5"/>
<text text-anchor="start" x="441.5" y="-85.9" font-family="Helvetica,sans-Serif" font-size="12.00">A12</text>
<polygon fill="White" stroke="transparent" points="527.5,-79.5 527.5,-98.5 586.5,-98.5 586.5,-79.5 527.5,-79.5"/>
<polygon fill="none" stroke="black" points="527.5,-79.5 527.5,-98.5 586.5,-98.5 586.5,-79.5 527.5,-79.5"/>
<text text-anchor="start" x="530.5" y="-85.9" font-family="Helvetica,sans-Serif" font-size="12.00">decimal</text>
<polygon fill="White" stroke="transparent" points="438.5,-60.5 438.5,-79.5 527.5,-79.5 527.5,-60.5 438.5,-60.5"/>
<polygon fill="none" stroke="black" points="438.5,-60.5 438.5,-79.5 527.5,-79.5 527.5,-60.5 438.5,-60.5"/>
<text text-anchor="start" x="441.5" y="-66.9" font-family="Helvetica,sans-Serif" font-size="12.00">A13</text>
<polygon fill="White" stroke="transparent" points="527.5,-60.5 527.5,-79.5 586.5,-79.5 586.5,-60.5 527.5,-60.5"/>
<polygon fill="none" stroke="black" points="527.5,-60.5 527.5,-79.5 586.5,-79.5 586.5,-60.5 527.5,-60.5"/>
<text text-anchor="start" x="530.5" y="-66.9" font-family="Helvetica,sans-Serif" font-size="12.00">decimal</text>
<polygon fill="White" stroke="transparent" points="438.5,-41.5 438.5,-60.5 527.5,-60.5 527.5,-41.5 438.5,-41.5"/>
<polygon fill="none" stroke="black" points="438.5,-41.5 438.5,-60.5 527.5,-60.5 527.5,-41.5 438.5,-41.5"/>
<text text-anchor="start" x="441.5" y="-47.9" font-family="Helvetica,sans-Serif" font-size="12.00">A14</text>
<polygon fill="White" stroke="transparent" points="527.5,-41.5 527.5,-60.5 586.5,-60.5 586.5,-41.5 527.5,-41.5"/>
<polygon fill="none" stroke="black" points="527.5,-41.5 527.5,-60.5 586.5,-60.5 586.5,-41.5 527.5,-41.5"/>
<text text-anchor="start" x="530.5" y="-47.9" font-family="Helvetica,sans-Serif" font-size="12.00">int</text>
<polygon fill="White" stroke="transparent" points="438.5,-22.5 438.5,-41.5 527.5,-41.5 527.5,-22.5 438.5,-22.5"/>
<polygon fill="none" stroke="black" points="438.5,-22.5 438.5,-41.5 527.5,-41.5 527.5,-22.5 438.5,-22.5"/>
<text text-anchor="start" x="441.5" y="-28.9" font-family="Helvetica,sans-Serif" font-size="12.00">A15</text>
<polygon fill="White" stroke="transparent" points="527.5,-22.5 527.5,-41.5 586.5,-41.5 586.5,-22.5 527.5,-22.5"/>
<polygon fill="none" stroke="black" points="527.5,-22.5 527.5,-41.5 586.5,-41.5 586.5,-22.5 527.5,-22.5"/>
<text text-anchor="start" x="530.5" y="-28.9" font-family="Helvetica,sans-Serif" font-size="12.00">int</text>
<polygon fill="White" stroke="transparent" points="438.5,-3.5 438.5,-22.5 527.5,-22.5 527.5,-3.5 438.5,-3.5"/>
<polygon fill="none" stroke="black" points="438.5,-3.5 438.5,-22.5 527.5,-22.5 527.5,-3.5 438.5,-3.5"/>
<text text-anchor="start" x="441.5" y="-9.9" font-family="Helvetica,sans-Serif" font-size="12.00">A16</text>
<polygon fill="White" stroke="transparent" points="527.5,-3.5 527.5,-22.5 586.5,-22.5 586.5,-3.5 527.5,-3.5"/>
<polygon fill="none" stroke="black" points="527.5,-3.5 527.5,-22.5 586.5,-22.5 586.5,-3.5 527.5,-3.5"/>
<text text-anchor="start" x="530.5" y="-9.9" font-family="Helvetica,sans-Serif" font-size="12.00">int</text>
</g>
<!-- account -->
<g id="node2" class="node">
<title>account</title>
<polygon fill="Lavender" stroke="transparent" points="347.5,-450.5 347.5,-473.5 495.5,-473.5 495.5,-450.5 347.5,-450.5"/>
<polygon fill="none" stroke="black" points="347.5,-450.5 347.5,-473.5 495.5,-473.5 495.5,-450.5 347.5,-450.5"/>
<text text-anchor="start" x="395" y="-458.9" font-family="Helvetica,sans-Serif" font-weight="bold" font-size="12.00">account</text>
<polygon fill="White" stroke="transparent" points="347.5,-431.5 347.5,-450.5 436.5,-450.5 436.5,-431.5 347.5,-431.5"/>
<polygon fill="none" stroke="black" points="347.5,-431.5 347.5,-450.5 436.5,-450.5 436.5,-431.5 347.5,-431.5"/>
<text text-anchor="start" x="350.5" y="-437.9" font-family="Helvetica,sans-Serif" font-size="12.00">account_id</text>
<polygon fill="White" stroke="transparent" points="436.5,-431.5 436.5,-450.5 495.5,-450.5 495.5,-431.5 436.5,-431.5"/>
<polygon fill="none" stroke="black" points="436.5,-431.5 436.5,-450.5 495.5,-450.5 495.5,-431.5 436.5,-431.5"/>
<text text-anchor="start" x="439.5" y="-437.9" font-family="Helvetica,sans-Serif" font-size="12.00">int</text>
<polygon fill="White" stroke="transparent" points="347.5,-412.5 347.5,-431.5 436.5,-431.5 436.5,-412.5 347.5,-412.5"/>
<polygon fill="none" stroke="black" points="347.5,-412.5 347.5,-431.5 436.5,-431.5 436.5,-412.5 347.5,-412.5"/>
<text text-anchor="start" x="350.5" y="-418.9" font-family="Helvetica,sans-Serif" font-size="12.00">district_id</text>
<polygon fill="White" stroke="transparent" points="436.5,-412.5 436.5,-431.5 495.5,-431.5 495.5,-412.5 436.5,-412.5"/>
<polygon fill="none" stroke="black" points="436.5,-412.5 436.5,-431.5 495.5,-431.5 495.5,-412.5 436.5,-412.5"/>
<text text-anchor="start" x="439.5" y="-418.9" font-family="Helvetica,sans-Serif" font-size="12.00">int</text>
<polygon fill="White" stroke="transparent" points="347.5,-393.5 347.5,-412.5 436.5,-412.5 436.5,-393.5 347.5,-393.5"/>
<polygon fill="none" stroke="black" points="347.5,-393.5 347.5,-412.5 436.5,-412.5 436.5,-393.5 347.5,-393.5"/>
<text text-anchor="start" x="350.5" y="-399.9" font-family="Helvetica,sans-Serif" font-size="12.00">frequency</text>
<polygon fill="White" stroke="transparent" points="436.5,-393.5 436.5,-412.5 495.5,-412.5 495.5,-393.5 436.5,-393.5"/>
<polygon fill="none" stroke="black" points="436.5,-393.5 436.5,-412.5 495.5,-412.5 495.5,-393.5 436.5,-393.5"/>
<text text-anchor="start" x="439.5" y="-399.9" font-family="Helvetica,sans-Serif" font-size="12.00">varchar</text>
<polygon fill="White" stroke="transparent" points="347.5,-374.5 347.5,-393.5 436.5,-393.5 436.5,-374.5 347.5,-374.5"/>
<polygon fill="none" stroke="black" points="347.5,-374.5 347.5,-393.5 436.5,-393.5 436.5,-374.5 347.5,-374.5"/>
<text text-anchor="start" x="350.5" y="-380.9" font-family="Helvetica,sans-Serif" font-size="12.00">date</text>
<polygon fill="White" stroke="transparent" points="436.5,-374.5 436.5,-393.5 495.5,-393.5 495.5,-374.5 436.5,-374.5"/>
<polygon fill="none" stroke="black" points="436.5,-374.5 436.5,-393.5 495.5,-393.5 495.5,-374.5 436.5,-374.5"/>
<text text-anchor="start" x="439.5" y="-380.9" font-family="Helvetica,sans-Serif" font-size="12.00">date</text>
</g>
<!-- account&#45;&gt;district -->
<g id="edge1" class="edge">
<title>account&#45;&gt;district</title>
<path fill="none" stroke="black" d="M467,-370.94C467,-370.94 467,-345.01 467,-345.01"/>
<polygon fill="black" stroke="black" points="470.5,-345.01 467,-335.01 463.5,-345.01 470.5,-345.01"/>
</g>
<!-- disp -->
<g id="node3" class="node">
<title>disp</title>
<polygon fill="Lavender" stroke="transparent" points="533.5,-650.5 533.5,-673.5 674.5,-673.5 674.5,-650.5 533.5,-650.5"/>
<polygon fill="none" stroke="black" points="533.5,-650.5 533.5,-673.5 674.5,-673.5 674.5,-650.5 533.5,-650.5"/>
<text text-anchor="start" x="588.5" y="-658.9" font-family="Helvetica,sans-Serif" font-weight="bold" font-size="12.00">disp</text>
<polygon fill="White" stroke="transparent" points="533.5,-631.5 533.5,-650.5 615.5,-650.5 615.5,-631.5 533.5,-631.5"/>
<polygon fill="none" stroke="black" points="533.5,-631.5 533.5,-650.5 615.5,-650.5 615.5,-631.5 533.5,-631.5"/>
<text text-anchor="start" x="536.5" y="-637.9" font-family="Helvetica,sans-Serif" font-size="12.00">disp_id</text>
<polygon fill="White" stroke="transparent" points="615.5,-631.5 615.5,-650.5 674.5,-650.5 674.5,-631.5 615.5,-631.5"/>
<polygon fill="none" stroke="black" points="615.5,-631.5 615.5,-650.5 674.5,-650.5 674.5,-631.5 615.5,-631.5"/>
<text text-anchor="start" x="618.5" y="-637.9" font-family="Helvetica,sans-Serif" font-size="12.00">int</text>
<polygon fill="White" stroke="transparent" points="533.5,-612.5 533.5,-631.5 615.5,-631.5 615.5,-612.5 533.5,-612.5"/>
<polygon fill="none" stroke="black" points="533.5,-612.5 533.5,-631.5 615.5,-631.5 615.5,-612.5 533.5,-612.5"/>
<text text-anchor="start" x="536.5" y="-618.9" font-family="Helvetica,sans-Serif" font-size="12.00">client_id</text>
<polygon fill="White" stroke="transparent" points="615.5,-612.5 615.5,-631.5 674.5,-631.5 674.5,-612.5 615.5,-612.5"/>
<polygon fill="none" stroke="black" points="615.5,-612.5 615.5,-631.5 674.5,-631.5 674.5,-612.5 615.5,-612.5"/>
<text text-anchor="start" x="618.5" y="-618.9" font-family="Helvetica,sans-Serif" font-size="12.00">int</text>
<polygon fill="White" stroke="transparent" points="533.5,-593.5 533.5,-612.5 615.5,-612.5 615.5,-593.5 533.5,-593.5"/>
<polygon fill="none" stroke="black" points="533.5,-593.5 533.5,-612.5 615.5,-612.5 615.5,-593.5 533.5,-593.5"/>
<text text-anchor="start" x="536.5" y="-599.9" font-family="Helvetica,sans-Serif" font-size="12.00">account_id</text>
<polygon fill="White" stroke="transparent" points="615.5,-593.5 615.5,-612.5 674.5,-612.5 674.5,-593.5 615.5,-593.5"/>
<polygon fill="none" stroke="black" points="615.5,-593.5 615.5,-612.5 674.5,-612.5 674.5,-593.5 615.5,-593.5"/>
<text text-anchor="start" x="618.5" y="-599.9" font-family="Helvetica,sans-Serif" font-size="12.00">int</text>
<polygon fill="White" stroke="transparent" points="533.5,-574.5 533.5,-593.5 615.5,-593.5 615.5,-574.5 533.5,-574.5"/>
<polygon fill="none" stroke="black" points="533.5,-574.5 533.5,-593.5 615.5,-593.5 615.5,-574.5 533.5,-574.5"/>
<text text-anchor="start" x="536.5" y="-580.9" font-family="Helvetica,sans-Serif" font-size="12.00">type</text>
<polygon fill="White" stroke="transparent" points="615.5,-574.5 615.5,-593.5 674.5,-593.5 674.5,-574.5 615.5,-574.5"/>
<polygon fill="none" stroke="black" points="615.5,-574.5 615.5,-593.5 674.5,-593.5 674.5,-574.5 615.5,-574.5"/>
<text text-anchor="start" x="618.5" y="-580.9" font-family="Helvetica,sans-Serif" font-size="12.00">varchar</text>
</g>
<!-- disp&#45;&gt;account -->
<g id="edge5" class="edge">
<title>disp&#45;&gt;account</title>
<path fill="none" stroke="black" d="M524.84,-624C518.37,-624 514.25,-624 514.25,-624 514.25,-624 514.25,-424 514.25,-424 514.25,-424 513.19,-424 513.19,-424"/>
<polygon fill="black" stroke="black" points="513.61,-420.5 503.61,-424 513.61,-427.5 513.61,-420.5"/>
</g>
<!-- client -->
<g id="node5" class="node">
<title>client</title>
<polygon fill="Lavender" stroke="transparent" points="529.5,-450.5 529.5,-473.5 677.5,-473.5 677.5,-450.5 529.5,-450.5"/>
<polygon fill="none" stroke="black" points="529.5,-450.5 529.5,-473.5 677.5,-473.5 677.5,-450.5 529.5,-450.5"/>
<text text-anchor="start" x="580.5" y="-458.9" font-family="Helvetica,sans-Serif" font-weight="bold" font-size="12.00">client</text>
<polygon fill="White" stroke="transparent" points="529.5,-431.5 529.5,-450.5 618.5,-450.5 618.5,-431.5 529.5,-431.5"/>
<polygon fill="none" stroke="black" points="529.5,-431.5 529.5,-450.5 618.5,-450.5 618.5,-431.5 529.5,-431.5"/>
<text text-anchor="start" x="532.5" y="-437.9" font-family="Helvetica,sans-Serif" font-size="12.00">client_id</text>
<polygon fill="White" stroke="transparent" points="618.5,-431.5 618.5,-450.5 677.5,-450.5 677.5,-431.5 618.5,-431.5"/>
<polygon fill="none" stroke="black" points="618.5,-431.5 618.5,-450.5 677.5,-450.5 677.5,-431.5 618.5,-431.5"/>
<text text-anchor="start" x="621.5" y="-437.9" font-family="Helvetica,sans-Serif" font-size="12.00">int</text>
<polygon fill="White" stroke="transparent" points="529.5,-412.5 529.5,-431.5 618.5,-431.5 618.5,-412.5 529.5,-412.5"/>
<polygon fill="none" stroke="black" points="529.5,-412.5 529.5,-431.5 618.5,-431.5 618.5,-412.5 529.5,-412.5"/>
<text text-anchor="start" x="532.5" y="-418.9" font-family="Helvetica,sans-Serif" font-size="12.00">gender</text>
<polygon fill="White" stroke="transparent" points="618.5,-412.5 618.5,-431.5 677.5,-431.5 677.5,-412.5 618.5,-412.5"/>
<polygon fill="none" stroke="black" points="618.5,-412.5 618.5,-431.5 677.5,-431.5 677.5,-412.5 618.5,-412.5"/>
<text text-anchor="start" x="621.5" y="-418.9" font-family="Helvetica,sans-Serif" font-size="12.00">varchar</text>
<polygon fill="White" stroke="transparent" points="529.5,-393.5 529.5,-412.5 618.5,-412.5 618.5,-393.5 529.5,-393.5"/>
<polygon fill="none" stroke="black" points="529.5,-393.5 529.5,-412.5 618.5,-412.5 618.5,-393.5 529.5,-393.5"/>
<text text-anchor="start" x="532.5" y="-399.9" font-family="Helvetica,sans-Serif" font-size="12.00">birth_date</text>
<polygon fill="White" stroke="transparent" points="618.5,-393.5 618.5,-412.5 677.5,-412.5 677.5,-393.5 618.5,-393.5"/>
<polygon fill="none" stroke="black" points="618.5,-393.5 618.5,-412.5 677.5,-412.5 677.5,-393.5 618.5,-393.5"/>
<text text-anchor="start" x="621.5" y="-399.9" font-family="Helvetica,sans-Serif" font-size="12.00">date</text>
<polygon fill="White" stroke="transparent" points="529.5,-374.5 529.5,-393.5 618.5,-393.5 618.5,-374.5 529.5,-374.5"/>
<polygon fill="none" stroke="black" points="529.5,-374.5 529.5,-393.5 618.5,-393.5 618.5,-374.5 529.5,-374.5"/>
<text text-anchor="start" x="532.5" y="-380.9" font-family="Helvetica,sans-Serif" font-size="12.00">district_id</text>
<polygon fill="White" stroke="transparent" points="618.5,-374.5 618.5,-393.5 677.5,-393.5 677.5,-374.5 618.5,-374.5"/>
<polygon fill="none" stroke="black" points="618.5,-374.5 618.5,-393.5 677.5,-393.5 677.5,-374.5 618.5,-374.5"/>
<text text-anchor="start" x="621.5" y="-380.9" font-family="Helvetica,sans-Serif" font-size="12.00">int</text>
</g>
<!-- disp&#45;&gt;client -->
<g id="edge4" class="edge">
<title>disp&#45;&gt;client</title>
<path fill="none" stroke="black" d="M603.5,-570.9C603.5,-570.9 603.5,-488.24 603.5,-488.24"/>
<polygon fill="black" stroke="black" points="607,-488.24 603.5,-478.24 600,-488.24 607,-488.24"/>
</g>
<!-- card -->
<g id="node4" class="node">
<title>card</title>
<polygon fill="Lavender" stroke="transparent" points="544.5,-850.5 544.5,-873.5 662.5,-873.5 662.5,-850.5 544.5,-850.5"/>
<polygon fill="none" stroke="black" points="544.5,-850.5 544.5,-873.5 662.5,-873.5 662.5,-850.5 544.5,-850.5"/>
<text text-anchor="start" x="588" y="-858.9" font-family="Helvetica,sans-Serif" font-weight="bold" font-size="12.00">card</text>
<polygon fill="White" stroke="transparent" points="544.5,-831.5 544.5,-850.5 603.5,-850.5 603.5,-831.5 544.5,-831.5"/>
<polygon fill="none" stroke="black" points="544.5,-831.5 544.5,-850.5 603.5,-850.5 603.5,-831.5 544.5,-831.5"/>
<text text-anchor="start" x="547.5" y="-837.9" font-family="Helvetica,sans-Serif" font-size="12.00">card_id</text>
<polygon fill="White" stroke="transparent" points="603.5,-831.5 603.5,-850.5 662.5,-850.5 662.5,-831.5 603.5,-831.5"/>
<polygon fill="none" stroke="black" points="603.5,-831.5 603.5,-850.5 662.5,-850.5 662.5,-831.5 603.5,-831.5"/>
<text text-anchor="start" x="606.5" y="-837.9" font-family="Helvetica,sans-Serif" font-size="12.00">int</text>
<polygon fill="White" stroke="transparent" points="544.5,-812.5 544.5,-831.5 603.5,-831.5 603.5,-812.5 544.5,-812.5"/>
<polygon fill="none" stroke="black" points="544.5,-812.5 544.5,-831.5 603.5,-831.5 603.5,-812.5 544.5,-812.5"/>
<text text-anchor="start" x="547.5" y="-818.9" font-family="Helvetica,sans-Serif" font-size="12.00">disp_id</text>
<polygon fill="White" stroke="transparent" points="603.5,-812.5 603.5,-831.5 662.5,-831.5 662.5,-812.5 603.5,-812.5"/>
<polygon fill="none" stroke="black" points="603.5,-812.5 603.5,-831.5 662.5,-831.5 662.5,-812.5 603.5,-812.5"/>
<text text-anchor="start" x="606.5" y="-818.9" font-family="Helvetica,sans-Serif" font-size="12.00">int</text>
<polygon fill="White" stroke="transparent" points="544.5,-793.5 544.5,-812.5 603.5,-812.5 603.5,-793.5 544.5,-793.5"/>
<polygon fill="none" stroke="black" points="544.5,-793.5 544.5,-812.5 603.5,-812.5 603.5,-793.5 544.5,-793.5"/>
<text text-anchor="start" x="547.5" y="-799.9" font-family="Helvetica,sans-Serif" font-size="12.00">type</text>
<polygon fill="White" stroke="transparent" points="603.5,-793.5 603.5,-812.5 662.5,-812.5 662.5,-793.5 603.5,-793.5"/>
<polygon fill="none" stroke="black" points="603.5,-793.5 603.5,-812.5 662.5,-812.5 662.5,-793.5 603.5,-793.5"/>
<text text-anchor="start" x="606.5" y="-799.9" font-family="Helvetica,sans-Serif" font-size="12.00">varchar</text>
<polygon fill="White" stroke="transparent" points="544.5,-774.5 544.5,-793.5 603.5,-793.5 603.5,-774.5 544.5,-774.5"/>
<polygon fill="none" stroke="black" points="544.5,-774.5 544.5,-793.5 603.5,-793.5 603.5,-774.5 544.5,-774.5"/>
<text text-anchor="start" x="547.5" y="-780.9" font-family="Helvetica,sans-Serif" font-size="12.00">issued</text>
<polygon fill="White" stroke="transparent" points="603.5,-774.5 603.5,-793.5 662.5,-793.5 662.5,-774.5 603.5,-774.5"/>
<polygon fill="none" stroke="black" points="603.5,-774.5 603.5,-793.5 662.5,-793.5 662.5,-774.5 603.5,-774.5"/>
<text text-anchor="start" x="606.5" y="-780.9" font-family="Helvetica,sans-Serif" font-size="12.00">date</text>
</g>
<!-- card&#45;&gt;disp -->
<g id="edge2" class="edge">
<title>card&#45;&gt;disp</title>
<path fill="none" stroke="black" d="M603.5,-770.9C603.5,-770.9 603.5,-688.24 603.5,-688.24"/>
<polygon fill="black" stroke="black" points="607,-688.24 603.5,-678.24 600,-688.24 607,-688.24"/>
</g>
<!-- client&#45;&gt;district -->
<g id="edge3" class="edge">
<title>client&#45;&gt;district</title>
<path fill="none" stroke="black" d="M558,-370.94C558,-370.94 558,-345.01 558,-345.01"/>
<polygon fill="black" stroke="black" points="561.5,-345.01 558,-335.01 554.5,-345.01 561.5,-345.01"/>
</g>
<!-- loan -->
<g id="node6" class="node">
<title>loan</title>
<polygon fill="Lavender" stroke="transparent" points="8.5,-679.5 8.5,-702.5 149.5,-702.5 149.5,-679.5 8.5,-679.5"/>
<polygon fill="none" stroke="black" points="8.5,-679.5 8.5,-702.5 149.5,-702.5 149.5,-679.5 8.5,-679.5"/>
<text text-anchor="start" x="63.5" y="-687.9" font-family="Helvetica,sans-Serif" font-weight="bold" font-size="12.00">loan</text>
<polygon fill="White" stroke="transparent" points="8.5,-660.5 8.5,-679.5 90.5,-679.5 90.5,-660.5 8.5,-660.5"/>
<polygon fill="none" stroke="black" points="8.5,-660.5 8.5,-679.5 90.5,-679.5 90.5,-660.5 8.5,-660.5"/>
<text text-anchor="start" x="11.5" y="-666.9" font-family="Helvetica,sans-Serif" font-size="12.00">loan_id</text>
<polygon fill="White" stroke="transparent" points="90.5,-660.5 90.5,-679.5 149.5,-679.5 149.5,-660.5 90.5,-660.5"/>
<polygon fill="none" stroke="black" points="90.5,-660.5 90.5,-679.5 149.5,-679.5 149.5,-660.5 90.5,-660.5"/>
<text text-anchor="start" x="93.5" y="-666.9" font-family="Helvetica,sans-Serif" font-size="12.00">int</text>
<polygon fill="White" stroke="transparent" points="8.5,-641.5 8.5,-660.5 90.5,-660.5 90.5,-641.5 8.5,-641.5"/>
<polygon fill="none" stroke="black" points="8.5,-641.5 8.5,-660.5 90.5,-660.5 90.5,-641.5 8.5,-641.5"/>
<text text-anchor="start" x="11.5" y="-647.9" font-family="Helvetica,sans-Serif" font-size="12.00">account_id</text>
<polygon fill="White" stroke="transparent" points="90.5,-641.5 90.5,-660.5 149.5,-660.5 149.5,-641.5 90.5,-641.5"/>
<polygon fill="none" stroke="black" points="90.5,-641.5 90.5,-660.5 149.5,-660.5 149.5,-641.5 90.5,-641.5"/>
<text text-anchor="start" x="93.5" y="-647.9" font-family="Helvetica,sans-Serif" font-size="12.00">int</text>
<polygon fill="White" stroke="transparent" points="8.5,-622.5 8.5,-641.5 90.5,-641.5 90.5,-622.5 8.5,-622.5"/>
<polygon fill="none" stroke="black" points="8.5,-622.5 8.5,-641.5 90.5,-641.5 90.5,-622.5 8.5,-622.5"/>
<text text-anchor="start" x="11.5" y="-628.9" font-family="Helvetica,sans-Serif" font-size="12.00">date</text>
<polygon fill="White" stroke="transparent" points="90.5,-622.5 90.5,-641.5 149.5,-641.5 149.5,-622.5 90.5,-622.5"/>
<polygon fill="none" stroke="black" points="90.5,-622.5 90.5,-641.5 149.5,-641.5 149.5,-622.5 90.5,-622.5"/>
<text text-anchor="start" x="93.5" y="-628.9" font-family="Helvetica,sans-Serif" font-size="12.00">date</text>
<polygon fill="White" stroke="transparent" points="8.5,-603.5 8.5,-622.5 90.5,-622.5 90.5,-603.5 8.5,-603.5"/>
<polygon fill="none" stroke="black" points="8.5,-603.5 8.5,-622.5 90.5,-622.5 90.5,-603.5 8.5,-603.5"/>
<text text-anchor="start" x="11.5" y="-609.9" font-family="Helvetica,sans-Serif" font-size="12.00">amount</text>
<polygon fill="White" stroke="transparent" points="90.5,-603.5 90.5,-622.5 149.5,-622.5 149.5,-603.5 90.5,-603.5"/>
<polygon fill="none" stroke="black" points="90.5,-603.5 90.5,-622.5 149.5,-622.5 149.5,-603.5 90.5,-603.5"/>
<text text-anchor="start" x="93.5" y="-609.9" font-family="Helvetica,sans-Serif" font-size="12.00">int</text>
<polygon fill="White" stroke="transparent" points="8.5,-584.5 8.5,-603.5 90.5,-603.5 90.5,-584.5 8.5,-584.5"/>
<polygon fill="none" stroke="black" points="8.5,-584.5 8.5,-603.5 90.5,-603.5 90.5,-584.5 8.5,-584.5"/>
<text text-anchor="start" x="11.5" y="-590.9" font-family="Helvetica,sans-Serif" font-size="12.00">duration</text>
<polygon fill="White" stroke="transparent" points="90.5,-584.5 90.5,-603.5 149.5,-603.5 149.5,-584.5 90.5,-584.5"/>
<polygon fill="none" stroke="black" points="90.5,-584.5 90.5,-603.5 149.5,-603.5 149.5,-584.5 90.5,-584.5"/>
<text text-anchor="start" x="93.5" y="-590.9" font-family="Helvetica,sans-Serif" font-size="12.00">int</text>
<polygon fill="White" stroke="transparent" points="8.5,-565.5 8.5,-584.5 90.5,-584.5 90.5,-565.5 8.5,-565.5"/>
<polygon fill="none" stroke="black" points="8.5,-565.5 8.5,-584.5 90.5,-584.5 90.5,-565.5 8.5,-565.5"/>
<text text-anchor="start" x="11.5" y="-571.9" font-family="Helvetica,sans-Serif" font-size="12.00">payments</text>
<polygon fill="White" stroke="transparent" points="90.5,-565.5 90.5,-584.5 149.5,-584.5 149.5,-565.5 90.5,-565.5"/>
<polygon fill="none" stroke="black" points="90.5,-565.5 90.5,-584.5 149.5,-584.5 149.5,-565.5 90.5,-565.5"/>
<text text-anchor="start" x="93.5" y="-571.9" font-family="Helvetica,sans-Serif" font-size="12.00">decimal</text>
<polygon fill="White" stroke="transparent" points="8.5,-546.5 8.5,-565.5 90.5,-565.5 90.5,-546.5 8.5,-546.5"/>
<polygon fill="none" stroke="black" points="8.5,-546.5 8.5,-565.5 90.5,-565.5 90.5,-546.5 8.5,-546.5"/>
<text text-anchor="start" x="11.5" y="-552.9" font-family="Helvetica,sans-Serif" font-size="12.00">status</text>
<polygon fill="White" stroke="transparent" points="90.5,-546.5 90.5,-565.5 149.5,-565.5 149.5,-546.5 90.5,-546.5"/>
<polygon fill="none" stroke="black" points="90.5,-546.5 90.5,-565.5 149.5,-565.5 149.5,-546.5 90.5,-546.5"/>
<text text-anchor="start" x="93.5" y="-552.9" font-family="Helvetica,sans-Serif" font-size="12.00">varchar</text>
</g>
<!-- loan&#45;&gt;account -->
<g id="edge6" class="edge">
<title>loan&#45;&gt;account</title>
<path fill="none" stroke="black" d="M157.14,-547C235.11,-547 343,-547 343,-547 343,-547 343,-488.23 343,-488.23"/>
<polygon fill="black" stroke="black" points="346.5,-488.23 343,-478.23 339.5,-488.23 346.5,-488.23"/>
</g>
<!-- order -->
<g id="node7" class="node">
<title>order</title>
<polygon fill="Lavender" stroke="transparent" points="183.5,-669.5 183.5,-692.5 324.5,-692.5 324.5,-669.5 183.5,-669.5"/>
<polygon fill="none" stroke="black" points="183.5,-669.5 183.5,-692.5 324.5,-692.5 324.5,-669.5 183.5,-669.5"/>
<text text-anchor="start" x="235" y="-677.9" font-family="Helvetica,sans-Serif" font-weight="bold" font-size="12.00">order</text>
<polygon fill="White" stroke="transparent" points="183.5,-650.5 183.5,-669.5 265.5,-669.5 265.5,-650.5 183.5,-650.5"/>
<polygon fill="none" stroke="black" points="183.5,-650.5 183.5,-669.5 265.5,-669.5 265.5,-650.5 183.5,-650.5"/>
<text text-anchor="start" x="186.5" y="-656.9" font-family="Helvetica,sans-Serif" font-size="12.00">order_id</text>
<polygon fill="White" stroke="transparent" points="265.5,-650.5 265.5,-669.5 324.5,-669.5 324.5,-650.5 265.5,-650.5"/>
<polygon fill="none" stroke="black" points="265.5,-650.5 265.5,-669.5 324.5,-669.5 324.5,-650.5 265.5,-650.5"/>
<text text-anchor="start" x="268.5" y="-656.9" font-family="Helvetica,sans-Serif" font-size="12.00">int</text>
<polygon fill="White" stroke="transparent" points="183.5,-631.5 183.5,-650.5 265.5,-650.5 265.5,-631.5 183.5,-631.5"/>
<polygon fill="none" stroke="black" points="183.5,-631.5 183.5,-650.5 265.5,-650.5 265.5,-631.5 183.5,-631.5"/>
<text text-anchor="start" x="186.5" y="-637.9" font-family="Helvetica,sans-Serif" font-size="12.00">account_id</text>
<polygon fill="White" stroke="transparent" points="265.5,-631.5 265.5,-650.5 324.5,-650.5 324.5,-631.5 265.5,-631.5"/>
<polygon fill="none" stroke="black" points="265.5,-631.5 265.5,-650.5 324.5,-650.5 324.5,-631.5 265.5,-631.5"/>
<text text-anchor="start" x="268.5" y="-637.9" font-family="Helvetica,sans-Serif" font-size="12.00">int</text>
<polygon fill="White" stroke="transparent" points="183.5,-612.5 183.5,-631.5 265.5,-631.5 265.5,-612.5 183.5,-612.5"/>
<polygon fill="none" stroke="black" points="183.5,-612.5 183.5,-631.5 265.5,-631.5 265.5,-612.5 183.5,-612.5"/>
<text text-anchor="start" x="186.5" y="-618.9" font-family="Helvetica,sans-Serif" font-size="12.00">bank_to</text>
<polygon fill="White" stroke="transparent" points="265.5,-612.5 265.5,-631.5 324.5,-631.5 324.5,-612.5 265.5,-612.5"/>
<polygon fill="none" stroke="black" points="265.5,-612.5 265.5,-631.5 324.5,-631.5 324.5,-612.5 265.5,-612.5"/>
<text text-anchor="start" x="268.5" y="-618.9" font-family="Helvetica,sans-Serif" font-size="12.00">varchar</text>
<polygon fill="White" stroke="transparent" points="183.5,-593.5 183.5,-612.5 265.5,-612.5 265.5,-593.5 183.5,-593.5"/>
<polygon fill="none" stroke="black" points="183.5,-593.5 183.5,-612.5 265.5,-612.5 265.5,-593.5 183.5,-593.5"/>
<text text-anchor="start" x="186.5" y="-599.9" font-family="Helvetica,sans-Serif" font-size="12.00">account_to</text>
<polygon fill="White" stroke="transparent" points="265.5,-593.5 265.5,-612.5 324.5,-612.5 324.5,-593.5 265.5,-593.5"/>
<polygon fill="none" stroke="black" points="265.5,-593.5 265.5,-612.5 324.5,-612.5 324.5,-593.5 265.5,-593.5"/>
<text text-anchor="start" x="268.5" y="-599.9" font-family="Helvetica,sans-Serif" font-size="12.00">int</text>
<polygon fill="White" stroke="transparent" points="183.5,-574.5 183.5,-593.5 265.5,-593.5 265.5,-574.5 183.5,-574.5"/>
<polygon fill="none" stroke="black" points="183.5,-574.5 183.5,-593.5 265.5,-593.5 265.5,-574.5 183.5,-574.5"/>
<text text-anchor="start" x="186.5" y="-580.9" font-family="Helvetica,sans-Serif" font-size="12.00">amount</text>
<polygon fill="White" stroke="transparent" points="265.5,-574.5 265.5,-593.5 324.5,-593.5 324.5,-574.5 265.5,-574.5"/>
<polygon fill="none" stroke="black" points="265.5,-574.5 265.5,-593.5 324.5,-593.5 324.5,-574.5 265.5,-574.5"/>
<text text-anchor="start" x="268.5" y="-580.9" font-family="Helvetica,sans-Serif" font-size="12.00">decimal</text>
<polygon fill="White" stroke="transparent" points="183.5,-555.5 183.5,-574.5 265.5,-574.5 265.5,-555.5 183.5,-555.5"/>
<polygon fill="none" stroke="black" points="183.5,-555.5 183.5,-574.5 265.5,-574.5 265.5,-555.5 183.5,-555.5"/>
<text text-anchor="start" x="186.5" y="-561.9" font-family="Helvetica,sans-Serif" font-size="12.00">k_symbol</text>
<polygon fill="White" stroke="transparent" points="265.5,-555.5 265.5,-574.5 324.5,-574.5 324.5,-555.5 265.5,-555.5"/>
<polygon fill="none" stroke="black" points="265.5,-555.5 265.5,-574.5 324.5,-574.5 324.5,-555.5 265.5,-555.5"/>
<text text-anchor="start" x="268.5" y="-561.9" font-family="Helvetica,sans-Serif" font-size="12.00">varchar</text>
</g>
<!-- order&#45;&gt;account -->
<g id="edge7" class="edge">
<title>order&#45;&gt;account</title>
<path fill="none" stroke="black" d="M332.38,-624C340.87,-624 346.5,-624 346.5,-624 346.5,-624 346.5,-488.22 346.5,-488.22"/>
<polygon fill="black" stroke="black" points="350,-488.22 346.5,-478.22 343,-488.22 350,-488.22"/>
</g>
<!-- trans -->
<g id="node8" class="node">
<title>trans</title>
<polygon fill="Lavender" stroke="transparent" points="358.5,-707.5 358.5,-730.5 499.5,-730.5 499.5,-707.5 358.5,-707.5"/>
<polygon fill="none" stroke="black" points="358.5,-707.5 358.5,-730.5 499.5,-730.5 499.5,-707.5 358.5,-707.5"/>
<text text-anchor="start" x="410" y="-715.9" font-family="Helvetica,sans-Serif" font-weight="bold" font-size="12.00">trans</text>
<polygon fill="White" stroke="transparent" points="358.5,-688.5 358.5,-707.5 440.5,-707.5 440.5,-688.5 358.5,-688.5"/>
<polygon fill="none" stroke="black" points="358.5,-688.5 358.5,-707.5 440.5,-707.5 440.5,-688.5 358.5,-688.5"/>
<text text-anchor="start" x="361.5" y="-694.9" font-family="Helvetica,sans-Serif" font-size="12.00">trans_id</text>
<polygon fill="White" stroke="transparent" points="440.5,-688.5 440.5,-707.5 499.5,-707.5 499.5,-688.5 440.5,-688.5"/>
<polygon fill="none" stroke="black" points="440.5,-688.5 440.5,-707.5 499.5,-707.5 499.5,-688.5 440.5,-688.5"/>
<text text-anchor="start" x="443.5" y="-694.9" font-family="Helvetica,sans-Serif" font-size="12.00">int</text>
<polygon fill="White" stroke="transparent" points="358.5,-669.5 358.5,-688.5 440.5,-688.5 440.5,-669.5 358.5,-669.5"/>
<polygon fill="none" stroke="black" points="358.5,-669.5 358.5,-688.5 440.5,-688.5 440.5,-669.5 358.5,-669.5"/>
<text text-anchor="start" x="361.5" y="-675.9" font-family="Helvetica,sans-Serif" font-size="12.00">account_id</text>
<polygon fill="White" stroke="transparent" points="440.5,-669.5 440.5,-688.5 499.5,-688.5 499.5,-669.5 440.5,-669.5"/>
<polygon fill="none" stroke="black" points="440.5,-669.5 440.5,-688.5 499.5,-688.5 499.5,-669.5 440.5,-669.5"/>
<text text-anchor="start" x="443.5" y="-675.9" font-family="Helvetica,sans-Serif" font-size="12.00">int</text>
<polygon fill="White" stroke="transparent" points="358.5,-650.5 358.5,-669.5 440.5,-669.5 440.5,-650.5 358.5,-650.5"/>
<polygon fill="none" stroke="black" points="358.5,-650.5 358.5,-669.5 440.5,-669.5 440.5,-650.5 358.5,-650.5"/>
<text text-anchor="start" x="361.5" y="-656.9" font-family="Helvetica,sans-Serif" font-size="12.00">date</text>
<polygon fill="White" stroke="transparent" points="440.5,-650.5 440.5,-669.5 499.5,-669.5 499.5,-650.5 440.5,-650.5"/>
<polygon fill="none" stroke="black" points="440.5,-650.5 440.5,-669.5 499.5,-669.5 499.5,-650.5 440.5,-650.5"/>
<text text-anchor="start" x="443.5" y="-656.9" font-family="Helvetica,sans-Serif" font-size="12.00">date</text>
<polygon fill="White" stroke="transparent" points="358.5,-631.5 358.5,-650.5 440.5,-650.5 440.5,-631.5 358.5,-631.5"/>
<polygon fill="none" stroke="black" points="358.5,-631.5 358.5,-650.5 440.5,-650.5 440.5,-631.5 358.5,-631.5"/>
<text text-anchor="start" x="361.5" y="-637.9" font-family="Helvetica,sans-Serif" font-size="12.00">type</text>
<polygon fill="White" stroke="transparent" points="440.5,-631.5 440.5,-650.5 499.5,-650.5 499.5,-631.5 440.5,-631.5"/>
<polygon fill="none" stroke="black" points="440.5,-631.5 440.5,-650.5 499.5,-650.5 499.5,-631.5 440.5,-631.5"/>
<text text-anchor="start" x="443.5" y="-637.9" font-family="Helvetica,sans-Serif" font-size="12.00">varchar</text>
<polygon fill="White" stroke="transparent" points="358.5,-612.5 358.5,-631.5 440.5,-631.5 440.5,-612.5 358.5,-612.5"/>
<polygon fill="none" stroke="black" points="358.5,-612.5 358.5,-631.5 440.5,-631.5 440.5,-612.5 358.5,-612.5"/>
<text text-anchor="start" x="361.5" y="-618.9" font-family="Helvetica,sans-Serif" font-size="12.00">operation</text>
<polygon fill="White" stroke="transparent" points="440.5,-612.5 440.5,-631.5 499.5,-631.5 499.5,-612.5 440.5,-612.5"/>
<polygon fill="none" stroke="black" points="440.5,-612.5 440.5,-631.5 499.5,-631.5 499.5,-612.5 440.5,-612.5"/>
<text text-anchor="start" x="443.5" y="-618.9" font-family="Helvetica,sans-Serif" font-size="12.00">varchar</text>
<polygon fill="White" stroke="transparent" points="358.5,-593.5 358.5,-612.5 440.5,-612.5 440.5,-593.5 358.5,-593.5"/>
<polygon fill="none" stroke="black" points="358.5,-593.5 358.5,-612.5 440.5,-612.5 440.5,-593.5 358.5,-593.5"/>
<text text-anchor="start" x="361.5" y="-599.9" font-family="Helvetica,sans-Serif" font-size="12.00">amount</text>
<polygon fill="White" stroke="transparent" points="440.5,-593.5 440.5,-612.5 499.5,-612.5 499.5,-593.5 440.5,-593.5"/>
<polygon fill="none" stroke="black" points="440.5,-593.5 440.5,-612.5 499.5,-612.5 499.5,-593.5 440.5,-593.5"/>
<text text-anchor="start" x="443.5" y="-599.9" font-family="Helvetica,sans-Serif" font-size="12.00">int</text>
<polygon fill="White" stroke="transparent" points="358.5,-574.5 358.5,-593.5 440.5,-593.5 440.5,-574.5 358.5,-574.5"/>
<polygon fill="none" stroke="black" points="358.5,-574.5 358.5,-593.5 440.5,-593.5 440.5,-574.5 358.5,-574.5"/>
<text text-anchor="start" x="361.5" y="-580.9" font-family="Helvetica,sans-Serif" font-size="12.00">balance</text>
<polygon fill="White" stroke="transparent" points="440.5,-574.5 440.5,-593.5 499.5,-593.5 499.5,-574.5 440.5,-574.5"/>
<polygon fill="none" stroke="black" points="440.5,-574.5 440.5,-593.5 499.5,-593.5 499.5,-574.5 440.5,-574.5"/>
<text text-anchor="start" x="443.5" y="-580.9" font-family="Helvetica,sans-Serif" font-size="12.00">int</text>
<polygon fill="White" stroke="transparent" points="358.5,-555.5 358.5,-574.5 440.5,-574.5 440.5,-555.5 358.5,-555.5"/>
<polygon fill="none" stroke="black" points="358.5,-555.5 358.5,-574.5 440.5,-574.5 440.5,-555.5 358.5,-555.5"/>
<text text-anchor="start" x="361.5" y="-561.9" font-family="Helvetica,sans-Serif" font-size="12.00">k_symbol</text>
<polygon fill="White" stroke="transparent" points="440.5,-555.5 440.5,-574.5 499.5,-574.5 499.5,-555.5 440.5,-555.5"/>
<polygon fill="none" stroke="black" points="440.5,-555.5 440.5,-574.5 499.5,-574.5 499.5,-555.5 440.5,-555.5"/>
<text text-anchor="start" x="443.5" y="-561.9" font-family="Helvetica,sans-Serif" font-size="12.00">varchar</text>
<polygon fill="White" stroke="transparent" points="358.5,-536.5 358.5,-555.5 440.5,-555.5 440.5,-536.5 358.5,-536.5"/>
<polygon fill="none" stroke="black" points="358.5,-536.5 358.5,-555.5 440.5,-555.5 440.5,-536.5 358.5,-536.5"/>
<text text-anchor="start" x="361.5" y="-542.9" font-family="Helvetica,sans-Serif" font-size="12.00">bank</text>
<polygon fill="White" stroke="transparent" points="440.5,-536.5 440.5,-555.5 499.5,-555.5 499.5,-536.5 440.5,-536.5"/>
<polygon fill="none" stroke="black" points="440.5,-536.5 440.5,-555.5 499.5,-555.5 499.5,-536.5 440.5,-536.5"/>
<text text-anchor="start" x="443.5" y="-542.9" font-family="Helvetica,sans-Serif" font-size="12.00">varchar</text>
<polygon fill="White" stroke="transparent" points="358.5,-517.5 358.5,-536.5 440.5,-536.5 440.5,-517.5 358.5,-517.5"/>
<polygon fill="none" stroke="black" points="358.5,-517.5 358.5,-536.5 440.5,-536.5 440.5,-517.5 358.5,-517.5"/>
<text text-anchor="start" x="361.5" y="-523.9" font-family="Helvetica,sans-Serif" font-size="12.00">account</text>
<polygon fill="White" stroke="transparent" points="440.5,-517.5 440.5,-536.5 499.5,-536.5 499.5,-517.5 440.5,-517.5"/>
<polygon fill="none" stroke="black" points="440.5,-517.5 440.5,-536.5 499.5,-536.5 499.5,-517.5 440.5,-517.5"/>
<text text-anchor="start" x="443.5" y="-523.9" font-family="Helvetica,sans-Serif" font-size="12.00">int</text>
</g>
<!-- trans&#45;&gt;account -->
<g id="edge8" class="edge">
<title>trans&#45;&gt;account</title>
<path fill="none" stroke="black" d="M426.75,-513.97C426.75,-513.97 426.75,-488.02 426.75,-488.02"/>
<polygon fill="black" stroke="black" points="430.25,-488.02 426.75,-478.02 423.25,-488.02 430.25,-488.02"/>
</g>
</g>
</svg>
